<svg xmlns="http://www.w3.org/2000/svg" version="1.1" xmlns:xlink="http://www.w3.org/1999/xlink"
    xmlns:svgjs="http://svgjs.dev/svgjs" width="1440" height="560" preserveAspectRatio="none"
    viewBox="0 0 1440 560">
    <g mask="url(&quot;#SvgjsMask1970&quot;)" fill="none">
        <rect width="1440" height="560" x="0" y="0" fill="url(&quot;#SvgjsLinearGradient1971&quot;)"></rect>
        <path
            d="M755.46,641.06C800.072,639.735,832.16,602.755,853.392,563.497C873.391,526.52,879.108,483.969,860.918,446.069C839.821,402.111,804.185,361.227,755.46,359.444C704.367,357.574,659.19,392.402,635.728,437.828C614.042,479.816,622.913,528.915,646.901,569.632C670.467,609.633,709.053,642.439,755.46,641.06"
            fill="rgba(125, 142, 28, 0.4)" class="triangle-float2"></path>
        <path
            d="M1171.7077247656086 84.28089698816794L1041.0097136616723 119.30132351582158 1206.7281512932623 214.97890809210423z"
            fill="rgba(125, 142, 28, 0.4)" class="triangle-float1"></path>
        <path d="M-6.89 513.44 a146.19 146.19 0 1 0 292.38 0 a146.19 146.19 0 1 0 -292.38 0z"
            fill="rgba(125, 142, 28, 0.4)" class="triangle-float1"></path>
        <path
            d="M1109.861,468.684C1154.094,470.572,1193.233,438.753,1212.143,398.721C1228.777,363.506,1212.154,325.562,1193.657,291.289C1173.753,254.408,1151.661,212.214,1109.861,209.198C1064.413,205.919,1022.06,236.494,1002.135,277.473C984.202,314.355,1001.534,354.858,1021.664,390.589C1042.322,427.257,1067.812,466.889,1109.861,468.684"
            fill="rgba(125, 142, 28, 0.4)" class="triangle-float3"></path>
        <path
            d="M112.269,73.922C125.098,72.984,136.892,67.648,144.014,56.936C152.09,44.79,157.316,29.436,150.372,16.609C143.182,3.326,127.351,-2.516,112.269,-1.708C98.512,-0.971,88.062,8.742,80.633,20.344C72.362,33.262,63.515,49.046,71.314,62.254C79.049,75.355,97.096,75.032,112.269,73.922"
            fill="rgba(125, 142, 28, 0.4)" class="triangle-float2"></path>
        <path
            d="M848.7731603782723 184.27029597307632L863.6869564516323 114.10640191972519 750.9842173349256 126.81765483636076z"
            fill="rgba(125, 142, 28, 0.4)" class="triangle-float2"></path>
        <path
            d="M964.6814286777421 56.75129777670094L819.5724065863008 98.36064029339467 861.1817491029946 243.469662384836 1006.2907711944358 201.86031986814226z"
            fill="rgba(125, 142, 28, 0.4)" class="triangle-float3"></path>
        <path
            d="M454.25914376981575 532.0537029498469L536.4562610927469 573.9352261009595 558.1799871579504 429.6987885410066z"
            fill="rgba(125, 142, 28, 0.4)" class="triangle-float1"></path>
        <path d="M975.38 348.51 a170.98 170.98 0 1 0 341.96 0 a170.98 170.98 0 1 0 -341.96 0z"
            fill="rgba(125, 142, 28, 0.4)" class="triangle-float2"></path>
        <path d="M275.73 156.25 a128.25 128.25 0 1 0 256.5 0 a128.25 128.25 0 1 0 -256.5 0z"
            fill="rgba(125, 142, 28, 0.4)" class="triangle-float1"></path>
        <path
            d="M9.841924328251633 156.3346525078577L58.356769018310956 260.3750726931362 162.39718920358942 211.86022800307683 113.8823445135301 107.81980781779836z"
            fill="rgba(125, 142, 28, 0.4)" class="triangle-float2"></path>
    </g>
    <defs>
        <mask id="SvgjsMask1970">
            <rect width="1440" height="560" fill="#ffffff"></rect>
        </mask>
        <linearGradient x1="84.72%" y1="-39.29%" x2="15.28%" y2="139.29%"
            gradientUnits="userSpaceOnUse" id="SvgjsLinearGradient1971">
            <stop stop-color="#0e2a47" offset="0"></stop>
            <stop stop-color="rgba(0, 90, 216, 1)" offset="1"></stop>
        </linearGradient>
        <style>
            @keyframes float1 {
            0%{transform: translate(0, 0)}
            50%{transform: translate(-10px, 0)}
            100%{transform: translate(0, 0)}
            }

            .triangle-float1 {
            animation: float1 5s infinite;
            }

            @keyframes float2 {
            0%{transform: translate(0, 0)}
            50%{transform: translate(-5px, -5px)}
            100%{transform: translate(0, 0)}
            }

            .triangle-float2 {
            animation: float2 4s infinite;
            }

            @keyframes float3 {
            0%{transform: translate(0, 0)}
            50%{transform: translate(0, -10px)}
            100%{transform: translate(0, 0)}
            }

            .triangle-float3 {
            animation: float3 6s infinite;
            }
        </style>
    </defs>
</svg>